<svg xmlns="http://www.w3.org/2000/svg" width="425.25" viewBox="0 0 425.25 425.25" height="425.25" version="1.0"><defs><clipPath id="a"><path d="M 0 0 L 424.5 0 L 424.5 424.5 L 0 424.5 Z M 0 0"/></clipPath></defs><g clip-path="url(#a)" fill="#FFF"><path d="M 0 0 L 425.25 0 L 425.25 432.738281 L 0 432.738281 Z M 0 0"/><path d="M 0 0 L 424.5 0 L 424.5 424.5 L 0 424.5 Z M 0 0"/><path d="M 0 0 L 424.5 0 L 424.5 424.5 L 0 424.5 Z M 0 0"/></g><path d="M 212.101562 42.445312 C 201.347656 42.445312 192.632812 51.160156 192.632812 61.910156 C 192.632812 72.660156 201.347656 81.375 212.101562 81.375 C 222.851562 81.375 231.566406 72.660156 231.566406 61.910156 C 231.566406 51.160156 222.851562 42.445312 212.101562 42.445312"/><path stroke-linecap="round" transform="matrix(0 -3.73062 3.7434 0 213.09 136.05)" fill="none" d="M 0.500383 -0.000086269 L 14.152181 -0.000086269" stroke="#000"/><path stroke-linecap="round" transform="matrix(3.75609 0 0 3.7434 185.485 108.63)" fill="none" d="M 0.500116 -0.000276481 L 14.251752 -0.000276481" stroke="#000"/><path stroke-linecap="round" transform="matrix(2.1984 3.04054 -3.03354 2.19333 213.093 130.053)" fill="none" d="M 0.500243 0.000313024 L 11.674809 0.000223422" stroke="#000"/><path stroke-linecap="round" transform="matrix(2.38693 -2.8989 2.88984 2.37947 185.485 165.778)" fill="none" d="M 0.500386 0.000253689 L 10.465931 -0.000399775" stroke="#000"/></svg>